<svg xmlns="http://www.w3.org/2000/svg" viewBox="0 0 800 450" preserveAspectRatio="xMidYMid slice">
  <defs><linearGradient id="s" x1="0" y1="0" x2="0" y2="1"><stop offset="0" stop-color="#1f0a0a"/><stop offset="1" stop-color="#7f1d1d"/></linearGradient></defs>
  <rect width="800" height="450" fill="url(#s)"/>
  <rect x="0" y="0" width="800" height="40" fill="#991b1b"/><g fill="#b91c1c"><path d="M0 0 H130 Q110 200 60 360 H0 Z"/><path d="M800 0 H670 Q690 200 740 360 H800 Z"/></g><g stroke="#7f1d1d" stroke-width="3" opacity=".6"><path d="M40 0 Q35 180 20 360"/><path d="M90 0 Q80 180 50 360"/><path d="M760 0 Q765 180 780 360"/><path d="M710 0 Q720 180 750 360"/></g><g opacity=".7"><rect x="230" y="60" width="340" height="190" rx="4" fill="#f8fafc" stroke="#1f2937" stroke-width="6"/><rect x="260" y="85" width="200" height="18" rx="4" fill="#ef4444"/><rect x="260" y="125" width="150" height="10" rx="5" fill="#94a3b8"/><rect x="260" y="150" width="180" height="10" rx="5" fill="#94a3b8"/><rect x="260" y="175" width="120" height="10" rx="5" fill="#94a3b8"/><rect x="460" y="190" width="18" height="40" fill="#3b82f6"/><rect x="485" y="160" width="18" height="70" fill="#22c55e"/><rect x="510" y="130" width="18" height="100" fill="#f59e0b"/></g><g fill="#fde68a" opacity=".12"><path d="M150 0 L60 360 H240 Z"/><path d="M650 0 L560 360 H740 Z"/></g>
  <rect y="360" width="800" height="90" fill="#451a03"/>
  <path d="M0 360 H800" stroke="#fff" stroke-opacity=".25" stroke-width="3"/>
</svg>
