<svg xmlns="http://www.w3.org/2000/svg" viewBox="0 0 80 80"><rect x="3" y="24" width="74" height="34" rx="4" fill="#334155" stroke="#0f172a" stroke-width="3" stroke-linejoin="round"/><rect x="8" y="30" width="8" height="6" rx="1" fill="#e2e8f0"/><rect x="18" y="30" width="8" height="6" rx="1" fill="#e2e8f0"/><rect x="28" y="30" width="8" height="6" rx="1" fill="#e2e8f0"/><rect x="38" y="30" width="8" height="6" rx="1" fill="#e2e8f0"/><rect x="48" y="30" width="8" height="6" rx="1" fill="#e2e8f0"/><rect x="58" y="30" width="8" height="6" rx="1" fill="#e2e8f0"/><rect x="68" y="30" width="8" height="6" rx="1" fill="#e2e8f0"/><rect x="8" y="38" width="8" height="6" rx="1" fill="#e2e8f0"/><rect x="18" y="38" width="8" height="6" rx="1" fill="#e2e8f0"/><rect x="28" y="38" width="8" height="6" rx="1" fill="#e2e8f0"/><rect x="38" y="38" width="8" height="6" rx="1" fill="#e2e8f0"/><rect x="48" y="38" width="8" height="6" rx="1" fill="#e2e8f0"/><rect x="58" y="38" width="8" height="6" rx="1" fill="#e2e8f0"/><rect x="68" y="38" width="8" height="6" rx="1" fill="#e2e8f0"/><rect x="8" y="46" width="8" height="6" rx="1" fill="#e2e8f0"/><rect x="18" y="46" width="8" height="6" rx="1" fill="#e2e8f0"/><rect x="28" y="46" width="8" height="6" rx="1" fill="#e2e8f0"/><rect x="38" y="46" width="8" height="6" rx="1" fill="#e2e8f0"/><rect x="48" y="46" width="8" height="6" rx="1" fill="#e2e8f0"/><rect x="58" y="46" width="8" height="6" rx="1" fill="#e2e8f0"/><rect x="68" y="46" width="8" height="6" rx="1" fill="#e2e8f0"/><rect x="22" y="54" width="36" height="0" /></svg>