<svg xmlns="http://www.w3.org/2000/svg" viewBox="0 0 120 180"><ellipse cx="60" cy="172" rx="30" ry="6" fill="#000" opacity=".25"/>
<g stroke="#0f172a" stroke-width="9" stroke-linecap="round" fill="none"><path d="M60 62v50M60 112l-20 54M60 112l20 54M60 78l-26 26M60 78l26 26"/></g>
<g stroke="#fff" stroke-width="5" stroke-linecap="round" fill="none"><path d="M60 62v50M60 112l-20 54M60 112l20 54M60 78l-26 26M60 78l26 26"/></g>
<circle cx="60" cy="38" r="22" fill="#fff" stroke="#0f172a" stroke-width="4"/><circle cx="53" cy="40" r="3.5" fill="#0f172a"/><circle cx="67" cy="40" r="3.5" fill="#0f172a"/><path d="M52 50q8 6 16 0" stroke="#0f172a" stroke-width="3" fill="none"/><rect x="78" y="88" width="34" height="26" rx="3" fill="#facc15" stroke="#0f172a" stroke-width="3"/><text x="95" y="107" font-family="sans-serif" font-weight="bold" font-size="15" text-anchor="middle" fill="#0f172a">10</text><path d="M40 30h40" stroke="#0f172a" stroke-width="4"/><rect x="42" y="30" width="14" height="10" rx="3" fill="none" stroke="#0f172a" stroke-width="2.5"/><rect x="64" y="30" width="14" height="10" rx="3" fill="none" stroke="#0f172a" stroke-width="2.5"/></svg>